<mxfile host="app.diagrams.net" modified="2024-06-28T07:09:53.775Z" agent="Mozilla/5.0 (Windows NT 10.0; Win64; x64) AppleWebKit/537.36 (KHTML, like Gecko) Chrome/126.0.0.0 Safari/537.36" etag="8MktxeeFO4Kfy6XGS2Z9" version="24.5.5" type="device">
  <diagram name="페이지-1" id="Ru-ZO9FBKGIQGD6FfKSM">
    <mxGraphModel dx="6052" dy="1716" grid="1" gridSize="10" guides="1" tooltips="1" connect="1" arrows="1" fold="1" page="1" pageScale="1" pageWidth="827" pageHeight="1169" math="0" shadow="0">
      <root>
        <mxCell id="0" />
        <mxCell id="1" parent="0" />
        <mxCell id="HTaOXPNITLIius72TozP-2" value="Actor" style="shape=umlActor;verticalLabelPosition=bottom;verticalAlign=top;html=1;" parent="1" vertex="1">
          <mxGeometry x="90" y="320" width="140" height="270" as="geometry" />
        </mxCell>
        <mxCell id="HTaOXPNITLIius72TozP-9" value="&lt;font style=&quot;font-size: 32px;&quot;&gt;Use Case&lt;/font&gt;" style="ellipse;whiteSpace=wrap;html=1;" parent="1" vertex="1">
          <mxGeometry x="310" y="340" width="280" height="170" as="geometry" />
        </mxCell>
        <mxCell id="HTaOXPNITLIius72TozP-10" value="" style="endArrow=block;endFill=1;html=1;edgeStyle=orthogonalEdgeStyle;align=left;verticalAlign=top;rounded=0;" parent="1" edge="1">
          <mxGeometry x="-1" relative="1" as="geometry">
            <mxPoint x="270" y="720" as="sourcePoint" />
            <mxPoint x="470" y="720" as="targetPoint" />
          </mxGeometry>
        </mxCell>
        <mxCell id="HTaOXPNITLIius72TozP-11" value="1" style="edgeLabel;resizable=0;html=1;align=left;verticalAlign=bottom;" parent="HTaOXPNITLIius72TozP-10" connectable="0" vertex="1">
          <mxGeometry x="-1" relative="1" as="geometry" />
        </mxCell>
        <mxCell id="HTaOXPNITLIius72TozP-12" value="&amp;lt;&amp;lt;include&amp;gt;&amp;gt;" style="endArrow=open;endSize=12;dashed=1;html=1;rounded=0;" parent="1" edge="1">
          <mxGeometry x="-0.125" y="20" width="160" relative="1" as="geometry">
            <mxPoint x="250" y="820" as="sourcePoint" />
            <mxPoint x="410" y="820" as="targetPoint" />
            <mxPoint as="offset" />
          </mxGeometry>
        </mxCell>
        <mxCell id="HTaOXPNITLIius72TozP-13" value="&amp;lt;&amp;lt;extend&amp;gt;&amp;gt;" style="endArrow=open;endSize=12;dashed=1;html=1;rounded=0;" parent="1" edge="1">
          <mxGeometry x="-0.125" y="20" width="160" relative="1" as="geometry">
            <mxPoint x="60" y="820" as="sourcePoint" />
            <mxPoint x="220" y="820" as="targetPoint" />
            <mxPoint as="offset" />
          </mxGeometry>
        </mxCell>
        <mxCell id="HTaOXPNITLIius72TozP-14" value="" style="endArrow=block;endSize=16;endFill=0;html=1;rounded=0;" parent="1" edge="1">
          <mxGeometry width="160" relative="1" as="geometry">
            <mxPoint x="60" y="880" as="sourcePoint" />
            <mxPoint x="220" y="880" as="targetPoint" />
          </mxGeometry>
        </mxCell>
        <mxCell id="HTaOXPNITLIius72TozP-16" value="규칙 1. 연관 관계(실선 화살표)는&lt;div&gt;엑터 -&amp;gt; 유스케이스&lt;/div&gt;&lt;div&gt;유스케이스 -&amp;gt; 액터&lt;/div&gt;&lt;div&gt;형식만 가능하다&lt;/div&gt;" style="text;html=1;align=center;verticalAlign=middle;resizable=0;points=[];autosize=1;strokeColor=none;fillColor=none;" parent="1" vertex="1">
          <mxGeometry y="918" width="200" height="70" as="geometry" />
        </mxCell>
        <mxCell id="HTaOXPNITLIius72TozP-17" value="&lt;font style=&quot;font-size: 32px;&quot;&gt;Use Case&lt;/font&gt;" style="ellipse;whiteSpace=wrap;html=1;" parent="1" vertex="1">
          <mxGeometry x="530" y="1140" width="280" height="170" as="geometry" />
        </mxCell>
        <mxCell id="HTaOXPNITLIius72TozP-18" value="Actor" style="shape=umlActor;verticalLabelPosition=bottom;verticalAlign=top;html=1;" parent="1" vertex="1">
          <mxGeometry x="70" y="1090" width="140" height="270" as="geometry" />
        </mxCell>
        <mxCell id="HTaOXPNITLIius72TozP-22" value="" style="endArrow=block;endFill=1;html=1;edgeStyle=orthogonalEdgeStyle;align=left;verticalAlign=top;rounded=0;entryX=0;entryY=0.5;entryDx=0;entryDy=0;" parent="1" source="HTaOXPNITLIius72TozP-18" target="HTaOXPNITLIius72TozP-17" edge="1">
          <mxGeometry x="-1" relative="1" as="geometry">
            <mxPoint x="230" y="1204.41" as="sourcePoint" />
            <mxPoint x="430" y="1204.41" as="targetPoint" />
          </mxGeometry>
        </mxCell>
        <mxCell id="HTaOXPNITLIius72TozP-23" value="1" style="edgeLabel;resizable=0;html=1;align=left;verticalAlign=bottom;" parent="HTaOXPNITLIius72TozP-22" connectable="0" vertex="1">
          <mxGeometry x="-1" relative="1" as="geometry" />
        </mxCell>
        <mxCell id="HTaOXPNITLIius72TozP-24" value="" style="endArrow=block;endFill=1;html=1;edgeStyle=orthogonalEdgeStyle;align=left;verticalAlign=top;rounded=0;exitX=1;exitY=0.5;exitDx=0;exitDy=0;" parent="1" source="HTaOXPNITLIius72TozP-29" target="HTaOXPNITLIius72TozP-28" edge="1">
          <mxGeometry x="-1" relative="1" as="geometry">
            <mxPoint x="300" y="1514.41" as="sourcePoint" />
            <mxPoint x="620" y="1514.41" as="targetPoint" />
          </mxGeometry>
        </mxCell>
        <mxCell id="HTaOXPNITLIius72TozP-25" value="1" style="edgeLabel;resizable=0;html=1;align=left;verticalAlign=bottom;" parent="HTaOXPNITLIius72TozP-24" connectable="0" vertex="1">
          <mxGeometry x="-1" relative="1" as="geometry" />
        </mxCell>
        <mxCell id="HTaOXPNITLIius72TozP-28" value="Actor" style="shape=umlActor;verticalLabelPosition=bottom;verticalAlign=top;html=1;" parent="1" vertex="1">
          <mxGeometry x="600" y="1380" width="140" height="270" as="geometry" />
        </mxCell>
        <mxCell id="HTaOXPNITLIius72TozP-29" value="&lt;font style=&quot;font-size: 32px;&quot;&gt;Use Case&lt;/font&gt;" style="ellipse;whiteSpace=wrap;html=1;" parent="1" vertex="1">
          <mxGeometry y="1430" width="280" height="170" as="geometry" />
        </mxCell>
        <mxCell id="HTaOXPNITLIius72TozP-30" value="규칙2 : 포함, 확장 관계는&lt;div&gt;유스케이스 끼리만 가능하다.&lt;/div&gt;" style="text;html=1;align=center;verticalAlign=middle;resizable=0;points=[];autosize=1;strokeColor=none;fillColor=none;" parent="1" vertex="1">
          <mxGeometry y="1714" width="180" height="40" as="geometry" />
        </mxCell>
        <mxCell id="HTaOXPNITLIius72TozP-31" value="&amp;lt;&amp;lt;extends&amp;gt;&amp;gt;" style="endArrow=open;endSize=12;dashed=1;html=1;rounded=0;entryX=1;entryY=0.5;entryDx=0;entryDy=0;exitX=0;exitY=0.5;exitDx=0;exitDy=0;" parent="1" source="HTaOXPNITLIius72TozP-35" target="HTaOXPNITLIius72TozP-36" edge="1">
          <mxGeometry x="-0.125" y="15" width="160" relative="1" as="geometry">
            <mxPoint x="440" y="1980" as="sourcePoint" />
            <mxPoint x="480" y="2044.41" as="targetPoint" />
            <mxPoint x="1" as="offset" />
          </mxGeometry>
        </mxCell>
        <mxCell id="HTaOXPNITLIius72TozP-32" value="&amp;lt;&amp;lt;include&amp;gt;&amp;gt;" style="endArrow=open;endSize=12;dashed=1;html=1;rounded=0;entryX=-0.007;entryY=0.555;entryDx=0;entryDy=0;entryPerimeter=0;" parent="1" source="HTaOXPNITLIius72TozP-34" target="HTaOXPNITLIius72TozP-33" edge="1">
          <mxGeometry x="-0.0916" y="-15" width="160" relative="1" as="geometry">
            <mxPoint x="310" y="1854.41" as="sourcePoint" />
            <mxPoint x="470" y="1854.41" as="targetPoint" />
            <mxPoint x="1" as="offset" />
          </mxGeometry>
        </mxCell>
        <mxCell id="HTaOXPNITLIius72TozP-33" value="&lt;font style=&quot;font-size: 32px;&quot;&gt;로그인&lt;/font&gt;" style="ellipse;whiteSpace=wrap;html=1;" parent="1" vertex="1">
          <mxGeometry x="510" y="1770" width="280" height="170" as="geometry" />
        </mxCell>
        <mxCell id="HTaOXPNITLIius72TozP-34" value="&lt;span style=&quot;font-size: 32px;&quot;&gt;내정보 조회&lt;/span&gt;" style="ellipse;whiteSpace=wrap;html=1;" parent="1" vertex="1">
          <mxGeometry x="30" y="1780" width="280" height="170" as="geometry" />
        </mxCell>
        <mxCell id="HTaOXPNITLIius72TozP-35" value="&lt;font style=&quot;font-size: 32px;&quot;&gt;프로필 사진 등록&lt;/font&gt;" style="ellipse;whiteSpace=wrap;html=1;" parent="1" vertex="1">
          <mxGeometry x="480" y="1960" width="280" height="170" as="geometry" />
        </mxCell>
        <mxCell id="HTaOXPNITLIius72TozP-36" value="&lt;span style=&quot;font-size: 32px;&quot;&gt;회원 가입&lt;/span&gt;" style="ellipse;whiteSpace=wrap;html=1;" parent="1" vertex="1">
          <mxGeometry x="40" y="1960" width="280" height="170" as="geometry" />
        </mxCell>
        <mxCell id="HTaOXPNITLIius72TozP-37" value="규칙3. 일반화 관계는&lt;div&gt;액터끼리 또는&lt;/div&gt;&lt;div&gt;유스케이스 끼리만 가능하다&lt;/div&gt;" style="text;html=1;align=center;verticalAlign=middle;resizable=0;points=[];autosize=1;strokeColor=none;fillColor=none;" parent="1" vertex="1">
          <mxGeometry y="2150" width="170" height="60" as="geometry" />
        </mxCell>
        <mxCell id="HTaOXPNITLIius72TozP-38" value="&lt;span style=&quot;font-size: 32px;&quot;&gt;내용 검색&lt;/span&gt;" style="ellipse;whiteSpace=wrap;html=1;" parent="1" vertex="1">
          <mxGeometry x="40" y="2450" width="280" height="170" as="geometry" />
        </mxCell>
        <mxCell id="HTaOXPNITLIius72TozP-39" value="&lt;span style=&quot;font-size: 32px;&quot;&gt;제목 검색&lt;/span&gt;" style="ellipse;whiteSpace=wrap;html=1;" parent="1" vertex="1">
          <mxGeometry x="40" y="2230" width="280" height="170" as="geometry" />
        </mxCell>
        <mxCell id="HTaOXPNITLIius72TozP-40" value="" style="endArrow=block;endFill=1;html=1;edgeStyle=orthogonalEdgeStyle;align=left;verticalAlign=top;rounded=0;" parent="1" target="HTaOXPNITLIius72TozP-44" edge="1">
          <mxGeometry x="-1" relative="1" as="geometry">
            <mxPoint x="320" y="2320" as="sourcePoint" />
            <mxPoint x="520" y="2320" as="targetPoint" />
          </mxGeometry>
        </mxCell>
        <mxCell id="HTaOXPNITLIius72TozP-44" value="&lt;span style=&quot;font-size: 32px;&quot;&gt;게시글 검색&lt;/span&gt;" style="ellipse;whiteSpace=wrap;html=1;" parent="1" vertex="1">
          <mxGeometry x="490" y="2330" width="280" height="170" as="geometry" />
        </mxCell>
        <mxCell id="HTaOXPNITLIius72TozP-45" value="" style="endArrow=block;endFill=1;html=1;edgeStyle=orthogonalEdgeStyle;align=left;verticalAlign=top;rounded=0;exitX=1.007;exitY=0.541;exitDx=0;exitDy=0;exitPerimeter=0;entryX=0.239;entryY=0.918;entryDx=0;entryDy=0;entryPerimeter=0;" parent="1" source="HTaOXPNITLIius72TozP-38" target="HTaOXPNITLIius72TozP-44" edge="1">
          <mxGeometry x="-1" relative="1" as="geometry">
            <mxPoint x="330" y="2540" as="sourcePoint" />
            <mxPoint x="530" y="2540" as="targetPoint" />
          </mxGeometry>
        </mxCell>
        <mxCell id="HTaOXPNITLIius72TozP-46" value="회원" style="shape=umlActor;verticalLabelPosition=bottom;verticalAlign=top;html=1;" parent="1" vertex="1">
          <mxGeometry x="90" y="2700" width="140" height="270" as="geometry" />
        </mxCell>
        <mxCell id="HTaOXPNITLIius72TozP-47" value="사용자" style="shape=umlActor;verticalLabelPosition=bottom;verticalAlign=top;html=1;" parent="1" vertex="1">
          <mxGeometry x="570" y="2900" width="140" height="270" as="geometry" />
        </mxCell>
        <mxCell id="HTaOXPNITLIius72TozP-51" value="" style="html=1;verticalAlign=bottom;endArrow=block;curved=0;rounded=0;" parent="1" edge="1">
          <mxGeometry width="80" relative="1" as="geometry">
            <mxPoint x="240" y="2820" as="sourcePoint" />
            <mxPoint x="550" y="2950" as="targetPoint" />
          </mxGeometry>
        </mxCell>
        <mxCell id="HTaOXPNITLIius72TozP-52" value="" style="html=1;verticalAlign=bottom;endArrow=block;curved=0;rounded=0;" parent="1" edge="1">
          <mxGeometry width="80" relative="1" as="geometry">
            <mxPoint x="240" y="3240" as="sourcePoint" />
            <mxPoint x="560" y="3110" as="targetPoint" />
          </mxGeometry>
        </mxCell>
        <mxCell id="HTaOXPNITLIius72TozP-53" value="비회원" style="shape=umlActor;verticalLabelPosition=bottom;verticalAlign=top;html=1;" parent="1" vertex="1">
          <mxGeometry x="100" y="3070" width="140" height="270" as="geometry" />
        </mxCell>
        <mxCell id="HTaOXPNITLIius72TozP-55" value="" style="html=1;verticalAlign=bottom;endArrow=block;curved=0;rounded=0;" parent="1" edge="1">
          <mxGeometry width="80" relative="1" as="geometry">
            <mxPoint x="720" y="3053" as="sourcePoint" />
            <mxPoint x="1060" y="3060" as="targetPoint" />
          </mxGeometry>
        </mxCell>
        <mxCell id="HTaOXPNITLIius72TozP-56" value="&lt;span style=&quot;font-size: 32px;&quot;&gt;공지사항 조회&lt;/span&gt;" style="ellipse;whiteSpace=wrap;html=1;" parent="1" vertex="1">
          <mxGeometry x="1060" y="2980" width="280" height="170" as="geometry" />
        </mxCell>
        <mxCell id="HTaOXPNITLIius72TozP-57" value="비회원" style="shape=umlActor;verticalLabelPosition=bottom;verticalAlign=top;html=1;" parent="1" vertex="1">
          <mxGeometry x="100" y="3430" width="140" height="270" as="geometry" />
        </mxCell>
        <mxCell id="HTaOXPNITLIius72TozP-58" value="" style="html=1;verticalAlign=bottom;endArrow=block;curved=0;rounded=0;entryX=0;entryY=0.5;entryDx=0;entryDy=0;" parent="1" target="HTaOXPNITLIius72TozP-59" edge="1">
          <mxGeometry width="80" relative="1" as="geometry">
            <mxPoint x="240" y="3580.0029084530574" as="sourcePoint" />
            <mxPoint x="500" y="3591.3" as="targetPoint" />
            <Array as="points" />
          </mxGeometry>
        </mxCell>
        <mxCell id="HTaOXPNITLIius72TozP-59" value="&lt;span style=&quot;font-size: 32px;&quot;&gt;회원 가입&lt;/span&gt;" style="ellipse;whiteSpace=wrap;html=1;" parent="1" vertex="1">
          <mxGeometry x="500" y="3490" width="280" height="170" as="geometry" />
        </mxCell>
        <mxCell id="HTaOXPNITLIius72TozP-60" value="&lt;span style=&quot;font-size: 32px;&quot;&gt;이메일 인증&lt;/span&gt;" style="ellipse;whiteSpace=wrap;html=1;" parent="1" vertex="1">
          <mxGeometry x="1020" y="3490" width="280" height="170" as="geometry" />
        </mxCell>
        <mxCell id="HTaOXPNITLIius72TozP-61" value="&amp;lt;&amp;lt;include&amp;gt;&amp;gt;" style="endArrow=open;endSize=12;dashed=1;html=1;rounded=0;entryX=0.004;entryY=0.465;entryDx=0;entryDy=0;entryPerimeter=0;" parent="1" edge="1">
          <mxGeometry x="-0.125" y="20" width="160" relative="1" as="geometry">
            <mxPoint x="780" y="3576.6" as="sourcePoint" />
            <mxPoint x="1021.1199999999999" y="3573.4" as="targetPoint" />
            <mxPoint as="offset" />
            <Array as="points" />
          </mxGeometry>
        </mxCell>
        <mxCell id="HTaOXPNITLIius72TozP-64" value="Gmail 서버" style="shape=umlActor;verticalLabelPosition=bottom;verticalAlign=top;html=1;" parent="1" vertex="1">
          <mxGeometry x="1480" y="3440" width="140" height="270" as="geometry" />
        </mxCell>
        <mxCell id="HTaOXPNITLIius72TozP-65" value="" style="html=1;verticalAlign=bottom;endArrow=block;curved=0;rounded=0;" parent="1" target="HTaOXPNITLIius72TozP-64" edge="1">
          <mxGeometry width="80" relative="1" as="geometry">
            <mxPoint x="1300" y="3577.5029084530574" as="sourcePoint" />
            <mxPoint x="1560" y="3572.5" as="targetPoint" />
            <Array as="points" />
          </mxGeometry>
        </mxCell>
        <mxCell id="HTaOXPNITLIius72TozP-69" value="&amp;lt;&amp;lt;extends&amp;gt;&amp;gt;" style="endArrow=open;endSize=12;dashed=1;html=1;rounded=0;" parent="1" target="HTaOXPNITLIius72TozP-59" edge="1">
          <mxGeometry x="-0.125" y="15" width="160" relative="1" as="geometry">
            <mxPoint x="970" y="3810" as="sourcePoint" />
            <mxPoint x="1058.04" y="3780.01" as="targetPoint" />
            <mxPoint x="1" as="offset" />
          </mxGeometry>
        </mxCell>
        <mxCell id="HTaOXPNITLIius72TozP-70" value="&lt;span style=&quot;font-size: 32px;&quot;&gt;프로필 사진 등록&lt;/span&gt;" style="ellipse;whiteSpace=wrap;html=1;" parent="1" vertex="1">
          <mxGeometry x="950" y="3770" width="280" height="170" as="geometry" />
        </mxCell>
        <mxCell id="HTaOXPNITLIius72TozP-71" value="회원" style="shape=umlActor;verticalLabelPosition=bottom;verticalAlign=top;html=1;" parent="1" vertex="1">
          <mxGeometry x="100" y="3970" width="140" height="270" as="geometry" />
        </mxCell>
        <mxCell id="HTaOXPNITLIius72TozP-72" value="사용자" style="shape=umlActor;verticalLabelPosition=bottom;verticalAlign=top;html=1;" parent="1" vertex="1">
          <mxGeometry x="570" y="3800" width="140" height="270" as="geometry" />
        </mxCell>
        <mxCell id="HTaOXPNITLIius72TozP-73" value="" style="html=1;verticalAlign=bottom;endArrow=block;curved=0;rounded=0;" parent="1" target="HTaOXPNITLIius72TozP-72" edge="1">
          <mxGeometry width="80" relative="1" as="geometry">
            <mxPoint x="250" y="4090" as="sourcePoint" />
            <mxPoint x="560" y="4220" as="targetPoint" />
          </mxGeometry>
        </mxCell>
        <mxCell id="HTaOXPNITLIius72TozP-74" value="" style="html=1;verticalAlign=bottom;endArrow=block;curved=0;rounded=0;" parent="1" source="HTaOXPNITLIius72TozP-57" target="HTaOXPNITLIius72TozP-72" edge="1">
          <mxGeometry width="80" relative="1" as="geometry">
            <mxPoint x="280" y="3740" as="sourcePoint" />
            <mxPoint x="520" y="3690" as="targetPoint" />
            <Array as="points" />
          </mxGeometry>
        </mxCell>
        <mxCell id="HTaOXPNITLIius72TozP-75" value="&lt;span style=&quot;font-size: 32px;&quot;&gt;공지사항 조회&lt;/span&gt;" style="ellipse;whiteSpace=wrap;html=1;" parent="1" vertex="1">
          <mxGeometry x="950" y="3990" width="280" height="170" as="geometry" />
        </mxCell>
        <mxCell id="HTaOXPNITLIius72TozP-76" value="" style="html=1;verticalAlign=bottom;endArrow=block;curved=0;rounded=0;entryX=-0.004;entryY=0.4;entryDx=0;entryDy=0;entryPerimeter=0;" parent="1" source="HTaOXPNITLIius72TozP-72" target="HTaOXPNITLIius72TozP-75" edge="1">
          <mxGeometry width="80" relative="1" as="geometry">
            <mxPoint x="760" y="4100" as="sourcePoint" />
            <mxPoint x="1080" y="3973" as="targetPoint" />
          </mxGeometry>
        </mxCell>
        <mxCell id="HTaOXPNITLIius72TozP-77" value="관리자" style="shape=umlActor;verticalLabelPosition=bottom;verticalAlign=top;html=1;" parent="1" vertex="1">
          <mxGeometry x="100" y="4310" width="140" height="270" as="geometry" />
        </mxCell>
        <mxCell id="HTaOXPNITLIius72TozP-78" value="" style="html=1;verticalAlign=bottom;endArrow=block;curved=0;rounded=0;" parent="1" target="HTaOXPNITLIius72TozP-72" edge="1">
          <mxGeometry width="80" relative="1" as="geometry">
            <mxPoint x="240" y="4488.369565217391" as="sourcePoint" />
            <mxPoint x="630" y="4340" as="targetPoint" />
          </mxGeometry>
        </mxCell>
        <mxCell id="HTaOXPNITLIius72TozP-79" value="&lt;span style=&quot;font-size: 32px;&quot;&gt;관리자만 하는 기능&lt;/span&gt;" style="ellipse;whiteSpace=wrap;html=1;" parent="1" vertex="1">
          <mxGeometry x="460" y="4420" width="280" height="170" as="geometry" />
        </mxCell>
        <mxCell id="HTaOXPNITLIius72TozP-80" value="" style="html=1;verticalAlign=bottom;endArrow=block;curved=0;rounded=0;entryX=0.019;entryY=0.418;entryDx=0;entryDy=0;entryPerimeter=0;" parent="1" source="HTaOXPNITLIius72TozP-77" target="HTaOXPNITLIius72TozP-79" edge="1">
          <mxGeometry width="80" relative="1" as="geometry">
            <mxPoint x="250" y="4498.369565217391" as="sourcePoint" />
            <mxPoint x="580" y="4042" as="targetPoint" />
          </mxGeometry>
        </mxCell>
        <mxCell id="HTaOXPNITLIius72TozP-81" value="&lt;span style=&quot;font-size: 32px;&quot;&gt;마이페이지&lt;/span&gt;" style="ellipse;whiteSpace=wrap;html=1;" parent="1" vertex="1">
          <mxGeometry x="-490" y="3730" width="280" height="170" as="geometry" />
        </mxCell>
        <mxCell id="HTaOXPNITLIius72TozP-82" value="" style="html=1;verticalAlign=bottom;endArrow=block;curved=0;rounded=0;" parent="1" source="HTaOXPNITLIius72TozP-71" target="HTaOXPNITLIius72TozP-81" edge="1">
          <mxGeometry width="80" relative="1" as="geometry">
            <mxPoint x="300" y="4216" as="sourcePoint" />
            <mxPoint x="640" y="3802" as="targetPoint" />
          </mxGeometry>
        </mxCell>
        <mxCell id="HTaOXPNITLIius72TozP-83" value="&lt;span style=&quot;font-size: 32px;&quot;&gt;내 정보 조회&lt;/span&gt;" style="ellipse;whiteSpace=wrap;html=1;" parent="1" vertex="1">
          <mxGeometry x="-930" y="3410" width="280" height="170" as="geometry" />
        </mxCell>
        <mxCell id="HTaOXPNITLIius72TozP-85" value="&amp;lt;&amp;lt;extends&amp;gt;&amp;gt;" style="endArrow=open;endSize=12;dashed=1;html=1;rounded=0;" parent="1" source="HTaOXPNITLIius72TozP-83" target="HTaOXPNITLIius72TozP-81" edge="1">
          <mxGeometry x="-0.125" y="15" width="160" relative="1" as="geometry">
            <mxPoint x="-490" y="3570" as="sourcePoint" />
            <mxPoint x="-740" y="3680" as="targetPoint" />
            <mxPoint x="1" as="offset" />
          </mxGeometry>
        </mxCell>
        <mxCell id="HTaOXPNITLIius72TozP-86" value="&lt;span style=&quot;font-size: 32px;&quot;&gt;회원 탈퇴&lt;/span&gt;" style="ellipse;whiteSpace=wrap;html=1;" parent="1" vertex="1">
          <mxGeometry x="-1080" y="3610" width="280" height="170" as="geometry" />
        </mxCell>
        <mxCell id="HTaOXPNITLIius72TozP-87" value="&amp;lt;&amp;lt;extends&amp;gt;&amp;gt;" style="endArrow=open;endSize=12;dashed=1;html=1;rounded=0;exitX=1.002;exitY=0.592;exitDx=0;exitDy=0;exitPerimeter=0;" parent="1" source="HTaOXPNITLIius72TozP-86" target="HTaOXPNITLIius72TozP-81" edge="1">
          <mxGeometry x="-0.125" y="15" width="160" relative="1" as="geometry">
            <mxPoint x="-700" y="3660" as="sourcePoint" />
            <mxPoint x="-890" y="3880" as="targetPoint" />
            <mxPoint x="1" as="offset" />
          </mxGeometry>
        </mxCell>
        <mxCell id="HTaOXPNITLIius72TozP-88" value="&lt;span style=&quot;font-size: 32px;&quot;&gt;비밀번호 변경&lt;/span&gt;" style="ellipse;whiteSpace=wrap;html=1;" parent="1" vertex="1">
          <mxGeometry x="-1085" y="3850" width="280" height="170" as="geometry" />
        </mxCell>
        <mxCell id="HTaOXPNITLIius72TozP-89" value="&amp;lt;&amp;lt;extends&amp;gt;&amp;gt;" style="endArrow=open;endSize=12;dashed=1;html=1;rounded=0;exitX=0.994;exitY=0.431;exitDx=0;exitDy=0;exitPerimeter=0;entryX=0.042;entryY=0.678;entryDx=0;entryDy=0;entryPerimeter=0;" parent="1" source="HTaOXPNITLIius72TozP-88" target="HTaOXPNITLIius72TozP-81" edge="1">
          <mxGeometry x="-0.125" y="15" width="160" relative="1" as="geometry">
            <mxPoint x="-495" y="4030" as="sourcePoint" />
            <mxPoint x="-560" y="3840" as="targetPoint" />
            <mxPoint x="1" as="offset" />
          </mxGeometry>
        </mxCell>
        <mxCell id="HTaOXPNITLIius72TozP-90" value="&lt;span style=&quot;font-size: 32px;&quot;&gt;게시글 목록 조회&lt;/span&gt;" style="ellipse;whiteSpace=wrap;html=1;" parent="1" vertex="1">
          <mxGeometry x="-440" y="4006" width="280" height="170" as="geometry" />
        </mxCell>
        <mxCell id="HTaOXPNITLIius72TozP-91" value="" style="html=1;verticalAlign=bottom;endArrow=block;curved=0;rounded=0;" parent="1" source="HTaOXPNITLIius72TozP-71" target="HTaOXPNITLIius72TozP-90" edge="1">
          <mxGeometry width="80" relative="1" as="geometry">
            <mxPoint x="159.99999999999955" y="4120.117840730037" as="sourcePoint" />
            <mxPoint x="710" y="4202" as="targetPoint" />
          </mxGeometry>
        </mxCell>
        <mxCell id="HTaOXPNITLIius72TozP-92" value="&lt;span style=&quot;font-size: 32px;&quot;&gt;게시글 작성&lt;/span&gt;" style="ellipse;whiteSpace=wrap;html=1;" parent="1" vertex="1">
          <mxGeometry x="-430" y="4210" width="280" height="170" as="geometry" />
        </mxCell>
        <mxCell id="HTaOXPNITLIius72TozP-93" value="" style="html=1;verticalAlign=bottom;endArrow=block;curved=0;rounded=0;" parent="1" source="HTaOXPNITLIius72TozP-71" target="HTaOXPNITLIius72TozP-92" edge="1">
          <mxGeometry width="80" relative="1" as="geometry">
            <mxPoint x="60" y="4340" as="sourcePoint" />
            <mxPoint x="670" y="4420" as="targetPoint" />
          </mxGeometry>
        </mxCell>
        <mxCell id="HTaOXPNITLIius72TozP-94" value="&lt;span style=&quot;font-size: 32px;&quot;&gt;게시글 상세조회&lt;/span&gt;" style="ellipse;whiteSpace=wrap;html=1;" parent="1" vertex="1">
          <mxGeometry x="-420" y="4426" width="280" height="170" as="geometry" />
        </mxCell>
        <mxCell id="HTaOXPNITLIius72TozP-95" value="" style="html=1;verticalAlign=bottom;endArrow=block;curved=0;rounded=0;" parent="1" source="HTaOXPNITLIius72TozP-71" target="HTaOXPNITLIius72TozP-94" edge="1">
          <mxGeometry width="80" relative="1" as="geometry">
            <mxPoint x="110" y="4350" as="sourcePoint" />
            <mxPoint x="680" y="4636" as="targetPoint" />
          </mxGeometry>
        </mxCell>
        <mxCell id="HTaOXPNITLIius72TozP-96" value="&lt;span style=&quot;font-size: 32px;&quot;&gt;게시글 수정&lt;/span&gt;" style="ellipse;whiteSpace=wrap;html=1;" parent="1" vertex="1">
          <mxGeometry x="-880" y="4426" width="280" height="170" as="geometry" />
        </mxCell>
        <mxCell id="HTaOXPNITLIius72TozP-97" value="&amp;lt;&amp;lt;extends&amp;gt;&amp;gt;" style="endArrow=open;endSize=12;dashed=1;html=1;rounded=0;" parent="1" source="HTaOXPNITLIius72TozP-96" target="HTaOXPNITLIius72TozP-94" edge="1">
          <mxGeometry x="-0.125" y="15" width="160" relative="1" as="geometry">
            <mxPoint x="-520" y="4515" as="sourcePoint" />
            <mxPoint x="-503" y="4330" as="targetPoint" />
            <mxPoint x="1" as="offset" />
          </mxGeometry>
        </mxCell>
        <mxCell id="HTaOXPNITLIius72TozP-98" value="&lt;span style=&quot;font-size: 32px;&quot;&gt;게시글 상세 조회&lt;/span&gt;" style="ellipse;whiteSpace=wrap;html=1;" parent="1" vertex="1">
          <mxGeometry x="-840" y="4610" width="280" height="170" as="geometry" />
        </mxCell>
        <mxCell id="HTaOXPNITLIius72TozP-99" value="&amp;lt;&amp;lt;extends&amp;gt;&amp;gt;" style="endArrow=open;endSize=12;dashed=1;html=1;rounded=0;exitX=1;exitY=0.5;exitDx=0;exitDy=0;" parent="1" source="HTaOXPNITLIius72TozP-98" target="HTaOXPNITLIius72TozP-94" edge="1">
          <mxGeometry x="-0.125" y="15" width="160" relative="1" as="geometry">
            <mxPoint x="-769" y="4648" as="sourcePoint" />
            <mxPoint x="-440" y="4570" as="targetPoint" />
            <mxPoint x="1" as="offset" />
          </mxGeometry>
        </mxCell>
        <mxCell id="HTaOXPNITLIius72TozP-100" value="&lt;span style=&quot;font-size: 32px;&quot;&gt;로그인&lt;/span&gt;" style="ellipse;whiteSpace=wrap;html=1;" parent="1" vertex="1">
          <mxGeometry x="-390" y="4728" width="280" height="170" as="geometry" />
        </mxCell>
        <mxCell id="HTaOXPNITLIius72TozP-101" value="" style="html=1;verticalAlign=bottom;endArrow=block;curved=0;rounded=0;exitX=0.035;exitY=0.961;exitDx=0;exitDy=0;exitPerimeter=0;" parent="1" source="HTaOXPNITLIius72TozP-71" target="HTaOXPNITLIius72TozP-100" edge="1">
          <mxGeometry width="80" relative="1" as="geometry">
            <mxPoint x="130" y="4470" as="sourcePoint" />
            <mxPoint x="710" y="4938" as="targetPoint" />
          </mxGeometry>
        </mxCell>
        <mxCell id="zDuV5ie3d85IJ7Vr7PQk-1" value="사용자" style="shape=umlActor;verticalLabelPosition=bottom;verticalAlign=top;html=1;" vertex="1" parent="1">
          <mxGeometry x="-790" y="5080" width="140" height="270" as="geometry" />
        </mxCell>
        <mxCell id="zDuV5ie3d85IJ7Vr7PQk-2" value="&lt;span style=&quot;font-size: 32px;&quot;&gt;게시판 등록&lt;/span&gt;" style="ellipse;whiteSpace=wrap;html=1;" vertex="1" parent="1">
          <mxGeometry x="-450" y="5750" width="280" height="170" as="geometry" />
        </mxCell>
        <mxCell id="zDuV5ie3d85IJ7Vr7PQk-3" value="" style="endArrow=block;endFill=1;html=1;edgeStyle=orthogonalEdgeStyle;align=left;verticalAlign=top;rounded=0;entryX=0;entryY=0.5;entryDx=0;entryDy=0;" edge="1" parent="1" target="zDuV5ie3d85IJ7Vr7PQk-2">
          <mxGeometry x="-1" relative="1" as="geometry">
            <mxPoint x="-690" y="5834.29" as="sourcePoint" />
            <mxPoint x="-490" y="5834.29" as="targetPoint" />
          </mxGeometry>
        </mxCell>
        <mxCell id="zDuV5ie3d85IJ7Vr7PQk-4" value="1" style="edgeLabel;resizable=0;html=1;align=left;verticalAlign=bottom;" connectable="0" vertex="1" parent="zDuV5ie3d85IJ7Vr7PQk-3">
          <mxGeometry x="-1" relative="1" as="geometry" />
        </mxCell>
        <mxCell id="zDuV5ie3d85IJ7Vr7PQk-5" value="&amp;lt;&amp;lt;include&amp;gt;&amp;gt;" style="endArrow=open;endSize=12;dashed=1;html=1;rounded=0;" edge="1" parent="1">
          <mxGeometry x="-0.125" y="20" width="160" relative="1" as="geometry">
            <mxPoint x="-630" y="5580" as="sourcePoint" />
            <mxPoint x="-470" y="5580" as="targetPoint" />
            <mxPoint as="offset" />
          </mxGeometry>
        </mxCell>
        <mxCell id="zDuV5ie3d85IJ7Vr7PQk-6" value="&amp;lt;&amp;lt;extend&amp;gt;&amp;gt;" style="endArrow=open;endSize=12;dashed=1;html=1;rounded=0;" edge="1" parent="1">
          <mxGeometry x="-0.125" y="20" width="160" relative="1" as="geometry">
            <mxPoint x="-820" y="5580" as="sourcePoint" />
            <mxPoint x="-660" y="5580" as="targetPoint" />
            <mxPoint as="offset" />
          </mxGeometry>
        </mxCell>
        <mxCell id="zDuV5ie3d85IJ7Vr7PQk-7" value="사용자" style="shape=umlActor;verticalLabelPosition=bottom;verticalAlign=top;html=1;" vertex="1" parent="1">
          <mxGeometry x="-840" y="5750" width="140" height="270" as="geometry" />
        </mxCell>
        <mxCell id="zDuV5ie3d85IJ7Vr7PQk-8" value="&lt;span style=&quot;font-size: 32px;&quot;&gt;상품 판매&lt;/span&gt;" style="ellipse;whiteSpace=wrap;html=1;" vertex="1" parent="1">
          <mxGeometry x="-460" y="5970" width="280" height="170" as="geometry" />
        </mxCell>
        <mxCell id="zDuV5ie3d85IJ7Vr7PQk-9" value="" style="endArrow=block;endFill=1;html=1;edgeStyle=orthogonalEdgeStyle;align=left;verticalAlign=top;rounded=0;" edge="1" parent="1" target="zDuV5ie3d85IJ7Vr7PQk-8">
          <mxGeometry x="-1" relative="1" as="geometry">
            <mxPoint x="-700" y="5970" as="sourcePoint" />
            <mxPoint x="-460" y="5970.71" as="targetPoint" />
          </mxGeometry>
        </mxCell>
        <mxCell id="zDuV5ie3d85IJ7Vr7PQk-10" value="1" style="edgeLabel;resizable=0;html=1;align=left;verticalAlign=bottom;" connectable="0" vertex="1" parent="zDuV5ie3d85IJ7Vr7PQk-9">
          <mxGeometry x="-1" relative="1" as="geometry" />
        </mxCell>
        <mxCell id="zDuV5ie3d85IJ7Vr7PQk-11" value="&lt;span style=&quot;font-size: 32px;&quot;&gt;카테고리 선택&lt;/span&gt;" style="ellipse;whiteSpace=wrap;html=1;" vertex="1" parent="1">
          <mxGeometry x="90" y="5750" width="280" height="170" as="geometry" />
        </mxCell>
        <mxCell id="zDuV5ie3d85IJ7Vr7PQk-12" value="&amp;lt;&amp;lt;include&amp;gt;&amp;gt;" style="endArrow=open;endSize=12;dashed=1;html=1;rounded=0;entryX=0.007;entryY=0.587;entryDx=0;entryDy=0;entryPerimeter=0;exitX=1.007;exitY=0.587;exitDx=0;exitDy=0;exitPerimeter=0;" edge="1" parent="1" source="zDuV5ie3d85IJ7Vr7PQk-2" target="zDuV5ie3d85IJ7Vr7PQk-11">
          <mxGeometry x="-0.125" y="20" width="160" relative="1" as="geometry">
            <mxPoint x="-140" y="5760" as="sourcePoint" />
            <mxPoint x="20" y="5760" as="targetPoint" />
            <mxPoint as="offset" />
          </mxGeometry>
        </mxCell>
        <mxCell id="zDuV5ie3d85IJ7Vr7PQk-13" value="&lt;span style=&quot;font-size: 32px;&quot;&gt;사진첨부&lt;/span&gt;" style="ellipse;whiteSpace=wrap;html=1;" vertex="1" parent="1">
          <mxGeometry x="-30" y="5470" width="280" height="170" as="geometry" />
        </mxCell>
        <mxCell id="zDuV5ie3d85IJ7Vr7PQk-14" value="&amp;lt;&amp;lt;extend&amp;gt;&amp;gt;" style="endArrow=open;endSize=12;dashed=1;html=1;rounded=0;exitX=0.089;exitY=0.781;exitDx=0;exitDy=0;exitPerimeter=0;" edge="1" parent="1" source="zDuV5ie3d85IJ7Vr7PQk-13" target="zDuV5ie3d85IJ7Vr7PQk-2">
          <mxGeometry x="-0.1196" y="18" width="160" relative="1" as="geometry">
            <mxPoint x="-230" y="5760" as="sourcePoint" />
            <mxPoint x="-30" y="5720" as="targetPoint" />
            <mxPoint as="offset" />
          </mxGeometry>
        </mxCell>
        <mxCell id="zDuV5ie3d85IJ7Vr7PQk-15" value="&lt;span style=&quot;font-size: 32px;&quot;&gt;게시글 목록 조회&lt;/span&gt;" style="ellipse;whiteSpace=wrap;html=1;" vertex="1" parent="1">
          <mxGeometry x="-460" y="6190" width="280" height="170" as="geometry" />
        </mxCell>
        <mxCell id="zDuV5ie3d85IJ7Vr7PQk-16" value="" style="endArrow=block;endFill=1;html=1;edgeStyle=orthogonalEdgeStyle;align=left;verticalAlign=top;rounded=0;entryX=0;entryY=0.5;entryDx=0;entryDy=0;" edge="1" parent="1" target="zDuV5ie3d85IJ7Vr7PQk-15" source="zDuV5ie3d85IJ7Vr7PQk-7">
          <mxGeometry x="-1" relative="1" as="geometry">
            <mxPoint x="-700" y="6274.29" as="sourcePoint" />
            <mxPoint x="-500" y="6274.29" as="targetPoint" />
            <Array as="points">
              <mxPoint x="-680" y="5885" />
              <mxPoint x="-680" y="6275" />
            </Array>
          </mxGeometry>
        </mxCell>
        <mxCell id="zDuV5ie3d85IJ7Vr7PQk-17" value="1" style="edgeLabel;resizable=0;html=1;align=left;verticalAlign=bottom;" connectable="0" vertex="1" parent="zDuV5ie3d85IJ7Vr7PQk-16">
          <mxGeometry x="-1" relative="1" as="geometry" />
        </mxCell>
        <mxCell id="zDuV5ie3d85IJ7Vr7PQk-20" value="&amp;lt;&amp;lt;include&amp;gt;&amp;gt;" style="endArrow=open;endSize=12;dashed=1;html=1;rounded=0;exitX=1;exitY=0.5;exitDx=0;exitDy=0;" edge="1" parent="1" source="zDuV5ie3d85IJ7Vr7PQk-15" target="zDuV5ie3d85IJ7Vr7PQk-11">
          <mxGeometry x="-0.125" y="20" width="160" relative="1" as="geometry">
            <mxPoint x="-158" y="5860" as="sourcePoint" />
            <mxPoint x="102" y="5860" as="targetPoint" />
            <mxPoint as="offset" />
          </mxGeometry>
        </mxCell>
        <mxCell id="zDuV5ie3d85IJ7Vr7PQk-21" value="&lt;span style=&quot;font-size: 32px;&quot;&gt;게시글 상세 조회&lt;/span&gt;" style="ellipse;whiteSpace=wrap;html=1;" vertex="1" parent="1">
          <mxGeometry x="80" y="6200" width="280" height="170" as="geometry" />
        </mxCell>
        <mxCell id="zDuV5ie3d85IJ7Vr7PQk-22" value="&amp;lt;&amp;lt;include&amp;gt;&amp;gt;" style="endArrow=open;endSize=12;dashed=1;html=1;rounded=0;exitX=0;exitY=0.5;exitDx=0;exitDy=0;entryX=1;entryY=0.5;entryDx=0;entryDy=0;" edge="1" parent="1" source="zDuV5ie3d85IJ7Vr7PQk-21" target="zDuV5ie3d85IJ7Vr7PQk-15">
          <mxGeometry x="-0.125" y="20" width="160" relative="1" as="geometry">
            <mxPoint x="-170" y="6285" as="sourcePoint" />
            <mxPoint x="-70" y="6400" as="targetPoint" />
            <mxPoint as="offset" />
          </mxGeometry>
        </mxCell>
        <mxCell id="zDuV5ie3d85IJ7Vr7PQk-23" value="&lt;span style=&quot;font-size: 32px;&quot;&gt;댓글작성&lt;/span&gt;" style="ellipse;whiteSpace=wrap;html=1;" vertex="1" parent="1">
          <mxGeometry x="543" y="5950" width="280" height="170" as="geometry" />
        </mxCell>
        <mxCell id="zDuV5ie3d85IJ7Vr7PQk-24" value="&amp;lt;&amp;lt;extend&amp;gt;&amp;gt;" style="endArrow=open;endSize=12;dashed=1;html=1;rounded=0;exitX=0.089;exitY=0.781;exitDx=0;exitDy=0;exitPerimeter=0;" edge="1" parent="1" source="zDuV5ie3d85IJ7Vr7PQk-23">
          <mxGeometry x="-0.1196" y="18" width="160" relative="1" as="geometry">
            <mxPoint x="343" y="6240" as="sourcePoint" />
            <mxPoint x="350" y="6249" as="targetPoint" />
            <mxPoint as="offset" />
          </mxGeometry>
        </mxCell>
        <mxCell id="zDuV5ie3d85IJ7Vr7PQk-25" value="&lt;span style=&quot;font-size: 32px;&quot;&gt;상품 구매&lt;/span&gt;" style="ellipse;whiteSpace=wrap;html=1;" vertex="1" parent="1">
          <mxGeometry x="547" y="6180" width="280" height="170" as="geometry" />
        </mxCell>
        <mxCell id="zDuV5ie3d85IJ7Vr7PQk-26" value="&amp;lt;&amp;lt;extend&amp;gt;&amp;gt;" style="endArrow=open;endSize=12;dashed=1;html=1;rounded=0;exitX=0;exitY=0.5;exitDx=0;exitDy=0;entryX=1;entryY=0.5;entryDx=0;entryDy=0;" edge="1" parent="1" source="zDuV5ie3d85IJ7Vr7PQk-25" target="zDuV5ie3d85IJ7Vr7PQk-21">
          <mxGeometry x="-0.1196" y="18" width="160" relative="1" as="geometry">
            <mxPoint x="578" y="6093" as="sourcePoint" />
            <mxPoint x="360" y="6259" as="targetPoint" />
            <mxPoint as="offset" />
          </mxGeometry>
        </mxCell>
        <mxCell id="zDuV5ie3d85IJ7Vr7PQk-27" value="&lt;span style=&quot;font-size: 32px;&quot;&gt;신고&lt;/span&gt;" style="ellipse;whiteSpace=wrap;html=1;" vertex="1" parent="1">
          <mxGeometry x="-900" y="6425.07" width="280" height="170" as="geometry" />
        </mxCell>
        <mxCell id="zDuV5ie3d85IJ7Vr7PQk-28" value="" style="endArrow=block;endFill=1;html=1;edgeStyle=orthogonalEdgeStyle;align=left;verticalAlign=top;rounded=0;entryX=0.5;entryY=0;entryDx=0;entryDy=0;" edge="1" parent="1" target="zDuV5ie3d85IJ7Vr7PQk-27">
          <mxGeometry x="-1" relative="1" as="geometry">
            <mxPoint x="-760" y="6010" as="sourcePoint" />
            <mxPoint x="-760" y="6390" as="targetPoint" />
            <Array as="points">
              <mxPoint x="-760" y="6010" />
            </Array>
          </mxGeometry>
        </mxCell>
        <mxCell id="zDuV5ie3d85IJ7Vr7PQk-29" value="1" style="edgeLabel;resizable=0;html=1;align=left;verticalAlign=bottom;" connectable="0" vertex="1" parent="zDuV5ie3d85IJ7Vr7PQk-28">
          <mxGeometry x="-1" relative="1" as="geometry" />
        </mxCell>
        <mxCell id="zDuV5ie3d85IJ7Vr7PQk-36" value="" style="endArrow=block;endFill=1;html=1;edgeStyle=orthogonalEdgeStyle;align=left;verticalAlign=top;rounded=0;entryX=0.5;entryY=0;entryDx=0;entryDy=0;entryPerimeter=0;" edge="1" parent="1" target="zDuV5ie3d85IJ7Vr7PQk-33">
          <mxGeometry x="-1" relative="1" as="geometry">
            <mxPoint x="-760.71" y="6599" as="sourcePoint" />
            <mxPoint x="-761" y="7010" as="targetPoint" />
            <Array as="points">
              <mxPoint x="-1170" y="6599" />
            </Array>
          </mxGeometry>
        </mxCell>
        <mxCell id="zDuV5ie3d85IJ7Vr7PQk-37" value="1" style="edgeLabel;resizable=0;html=1;align=left;verticalAlign=bottom;" connectable="0" vertex="1" parent="zDuV5ie3d85IJ7Vr7PQk-36">
          <mxGeometry x="-1" relative="1" as="geometry" />
        </mxCell>
        <mxCell id="zDuV5ie3d85IJ7Vr7PQk-33" value="관리자" style="shape=umlActor;verticalLabelPosition=bottom;verticalAlign=top;html=1;" vertex="1" parent="1">
          <mxGeometry x="-1240" y="6810" width="140" height="270" as="geometry" />
        </mxCell>
        <mxCell id="zDuV5ie3d85IJ7Vr7PQk-41" value="&lt;span style=&quot;font-size: 32px;&quot;&gt;게시글 수정&lt;/span&gt;" style="ellipse;whiteSpace=wrap;html=1;" vertex="1" parent="1">
          <mxGeometry x="-590" y="6565.07" width="280" height="170" as="geometry" />
        </mxCell>
        <mxCell id="zDuV5ie3d85IJ7Vr7PQk-42" value="" style="endArrow=block;endFill=1;html=1;edgeStyle=orthogonalEdgeStyle;align=left;verticalAlign=top;rounded=0;entryX=0.5;entryY=0;entryDx=0;entryDy=0;" edge="1" parent="1" target="zDuV5ie3d85IJ7Vr7PQk-41" source="zDuV5ie3d85IJ7Vr7PQk-7">
          <mxGeometry x="-1" relative="1" as="geometry">
            <mxPoint x="-450" y="6150" as="sourcePoint" />
            <mxPoint x="-450" y="6530" as="targetPoint" />
            <Array as="points">
              <mxPoint x="-720" y="6150" />
              <mxPoint x="-580" y="6150" />
              <mxPoint x="-580" y="6565" />
            </Array>
          </mxGeometry>
        </mxCell>
        <mxCell id="zDuV5ie3d85IJ7Vr7PQk-43" value="1" style="edgeLabel;resizable=0;html=1;align=left;verticalAlign=bottom;" connectable="0" vertex="1" parent="zDuV5ie3d85IJ7Vr7PQk-42">
          <mxGeometry x="-1" relative="1" as="geometry" />
        </mxCell>
        <mxCell id="zDuV5ie3d85IJ7Vr7PQk-44" value="&lt;span style=&quot;font-size: 32px;&quot;&gt;게시글 수정&lt;/span&gt;" style="ellipse;whiteSpace=wrap;html=1;" vertex="1" parent="1">
          <mxGeometry x="-490" y="6370" width="280" height="170" as="geometry" />
        </mxCell>
        <mxCell id="zDuV5ie3d85IJ7Vr7PQk-45" value="" style="endArrow=classic;html=1;rounded=0;entryX=0;entryY=0;entryDx=0;entryDy=0;" edge="1" parent="1" source="zDuV5ie3d85IJ7Vr7PQk-7" target="zDuV5ie3d85IJ7Vr7PQk-44">
          <mxGeometry width="50" height="50" relative="1" as="geometry">
            <mxPoint x="-420" y="6390" as="sourcePoint" />
            <mxPoint x="-80" y="6400" as="targetPoint" />
          </mxGeometry>
        </mxCell>
        <mxCell id="zDuV5ie3d85IJ7Vr7PQk-46" value="&lt;span style=&quot;font-size: 32px;&quot;&gt;게시글 비밀번호 인증&lt;/span&gt;" style="ellipse;whiteSpace=wrap;html=1;" vertex="1" parent="1">
          <mxGeometry x="-30" y="6540" width="330" height="170" as="geometry" />
        </mxCell>
        <mxCell id="zDuV5ie3d85IJ7Vr7PQk-47" value="&amp;lt;&amp;lt;include&amp;gt;&amp;gt;" style="endArrow=open;endSize=12;dashed=1;html=1;rounded=0;exitX=1;exitY=0.5;exitDx=0;exitDy=0;entryX=0.004;entryY=0.405;entryDx=0;entryDy=0;entryPerimeter=0;" edge="1" parent="1" target="zDuV5ie3d85IJ7Vr7PQk-46">
          <mxGeometry x="-0.125" y="20" width="160" relative="1" as="geometry">
            <mxPoint x="-210" y="6468" as="sourcePoint" />
            <mxPoint x="131" y="6102" as="targetPoint" />
            <mxPoint as="offset" />
          </mxGeometry>
        </mxCell>
        <mxCell id="zDuV5ie3d85IJ7Vr7PQk-48" value="&amp;lt;&amp;lt;include&amp;gt;&amp;gt;" style="endArrow=open;endSize=12;dashed=1;html=1;rounded=0;exitX=1;exitY=0.5;exitDx=0;exitDy=0;entryX=0.008;entryY=0.607;entryDx=0;entryDy=0;entryPerimeter=0;" edge="1" parent="1" target="zDuV5ie3d85IJ7Vr7PQk-46">
          <mxGeometry x="-0.125" y="20" width="160" relative="1" as="geometry">
            <mxPoint x="-310" y="6660" as="sourcePoint" />
            <mxPoint x="-129" y="6801" as="targetPoint" />
            <mxPoint as="offset" />
          </mxGeometry>
        </mxCell>
        <mxCell id="zDuV5ie3d85IJ7Vr7PQk-49" value="&lt;font style=&quot;font-size: 25px;&quot;&gt;사용자&lt;/font&gt;" style="shape=umlActor;verticalLabelPosition=bottom;verticalAlign=top;html=1;" vertex="1" parent="1">
          <mxGeometry x="-830" y="7720" width="140" height="270" as="geometry" />
        </mxCell>
        <mxCell id="zDuV5ie3d85IJ7Vr7PQk-50" value="&lt;span style=&quot;font-size: 32px;&quot;&gt;회원 가입&lt;/span&gt;" style="ellipse;whiteSpace=wrap;html=1;" vertex="1" parent="1">
          <mxGeometry x="-580" y="7390" width="280" height="170" as="geometry" />
        </mxCell>
        <mxCell id="zDuV5ie3d85IJ7Vr7PQk-51" value="&lt;font style=&quot;font-size: 25px;&quot;&gt;&amp;lt;&amp;lt;include&amp;gt;&amp;gt;&lt;/font&gt;" style="endArrow=open;endSize=12;dashed=1;html=1;rounded=0;" edge="1" parent="1">
          <mxGeometry x="-0.0909" y="20" width="160" relative="1" as="geometry">
            <mxPoint x="-1061" y="8040" as="sourcePoint" />
            <mxPoint x="-1061" y="7820" as="targetPoint" />
            <mxPoint as="offset" />
          </mxGeometry>
        </mxCell>
        <mxCell id="zDuV5ie3d85IJ7Vr7PQk-67" value="" style="edgeStyle=orthogonalEdgeStyle;rounded=0;orthogonalLoop=1;jettySize=auto;html=1;" edge="1" parent="1" source="zDuV5ie3d85IJ7Vr7PQk-52">
          <mxGeometry relative="1" as="geometry">
            <mxPoint x="-100" y="7865" as="targetPoint" />
            <Array as="points">
              <mxPoint x="-100" y="7866" />
            </Array>
          </mxGeometry>
        </mxCell>
        <mxCell id="zDuV5ie3d85IJ7Vr7PQk-52" value="&lt;span style=&quot;font-size: 32px;&quot;&gt;로그인&lt;/span&gt;" style="ellipse;whiteSpace=wrap;html=1;" vertex="1" parent="1">
          <mxGeometry x="-560" y="7780" width="280" height="170" as="geometry" />
        </mxCell>
        <mxCell id="zDuV5ie3d85IJ7Vr7PQk-53" value="" style="endArrow=classic;html=1;rounded=0;entryX=-0.009;entryY=0.428;entryDx=0;entryDy=0;entryPerimeter=0;" edge="1" parent="1" source="zDuV5ie3d85IJ7Vr7PQk-49" target="zDuV5ie3d85IJ7Vr7PQk-52">
          <mxGeometry width="50" height="50" relative="1" as="geometry">
            <mxPoint x="-700" y="7800" as="sourcePoint" />
            <mxPoint x="-449" y="8199" as="targetPoint" />
          </mxGeometry>
        </mxCell>
        <mxCell id="zDuV5ie3d85IJ7Vr7PQk-57" value="&lt;span style=&quot;font-size: 32px;&quot;&gt;마이페이지&lt;/span&gt;" style="ellipse;whiteSpace=wrap;html=1;" vertex="1" parent="1">
          <mxGeometry x="230" y="7760" width="280" height="170" as="geometry" />
        </mxCell>
        <mxCell id="zDuV5ie3d85IJ7Vr7PQk-58" value="&lt;font style=&quot;font-size: 25px;&quot;&gt;&amp;lt;&amp;lt;extend&amp;gt;&amp;gt;&lt;/font&gt;" style="endArrow=open;endSize=12;dashed=1;html=1;rounded=0;" edge="1" parent="1" source="zDuV5ie3d85IJ7Vr7PQk-72" target="zDuV5ie3d85IJ7Vr7PQk-57">
          <mxGeometry x="-0.1196" y="18" width="160" relative="1" as="geometry">
            <mxPoint x="748.96" y="7610" as="sourcePoint" />
            <mxPoint x="540" y="7776" as="targetPoint" />
            <mxPoint as="offset" />
          </mxGeometry>
        </mxCell>
        <mxCell id="zDuV5ie3d85IJ7Vr7PQk-64" value="&lt;span style=&quot;font-size: 25px;&quot;&gt;고객(가입)&lt;/span&gt;" style="shape=umlActor;verticalLabelPosition=bottom;verticalAlign=top;html=1;" vertex="1" parent="1">
          <mxGeometry x="-120" y="7740" width="140" height="270" as="geometry" />
        </mxCell>
        <mxCell id="zDuV5ie3d85IJ7Vr7PQk-65" value="&lt;span style=&quot;font-size: 25px;&quot;&gt;관리자&lt;/span&gt;" style="shape=umlActor;verticalLabelPosition=bottom;verticalAlign=top;html=1;" vertex="1" parent="1">
          <mxGeometry x="-120" y="8270" width="140" height="270" as="geometry" />
        </mxCell>
        <mxCell id="zDuV5ie3d85IJ7Vr7PQk-68" value="&lt;font style=&quot;font-size: 25px;&quot;&gt;&amp;lt;&amp;lt;include&amp;gt;&amp;gt;&lt;/font&gt;" style="endArrow=open;endSize=12;dashed=1;html=1;rounded=0;exitX=0.5;exitY=0;exitDx=0;exitDy=0;entryX=0.628;entryY=0.991;entryDx=0;entryDy=0;entryPerimeter=0;" edge="1" parent="1" source="zDuV5ie3d85IJ7Vr7PQk-52" target="zDuV5ie3d85IJ7Vr7PQk-50">
          <mxGeometry x="-0.116" y="18" width="160" relative="1" as="geometry">
            <mxPoint x="-241.03999999999994" y="7550" as="sourcePoint" />
            <mxPoint x="-550" y="7690" as="targetPoint" />
            <mxPoint as="offset" />
          </mxGeometry>
        </mxCell>
        <mxCell id="zDuV5ie3d85IJ7Vr7PQk-69" value="&lt;font style=&quot;font-size: 25px;&quot;&gt;&amp;lt;&amp;lt;extend&amp;gt;&amp;gt;&lt;/font&gt;" style="endArrow=open;endSize=12;dashed=1;html=1;rounded=0;exitX=0.089;exitY=0.781;exitDx=0;exitDy=0;exitPerimeter=0;" edge="1" parent="1">
          <mxGeometry x="-0.1359" y="10" width="160" relative="1" as="geometry">
            <mxPoint x="-1203.08" y="7820" as="sourcePoint" />
            <mxPoint x="-1421" y="7986.23" as="targetPoint" />
            <mxPoint as="offset" />
          </mxGeometry>
        </mxCell>
        <mxCell id="zDuV5ie3d85IJ7Vr7PQk-71" value="" style="endArrow=classic;html=1;rounded=0;entryX=0.007;entryY=0.694;entryDx=0;entryDy=0;entryPerimeter=0;" edge="1" parent="1" source="zDuV5ie3d85IJ7Vr7PQk-64" target="zDuV5ie3d85IJ7Vr7PQk-57">
          <mxGeometry width="50" height="50" relative="1" as="geometry">
            <mxPoint x="150" y="7710" as="sourcePoint" />
            <mxPoint x="307" y="8020" as="targetPoint" />
          </mxGeometry>
        </mxCell>
        <mxCell id="zDuV5ie3d85IJ7Vr7PQk-72" value="&lt;span style=&quot;font-size: 32px;&quot;&gt;회원 정보 조회&lt;/span&gt;" style="ellipse;whiteSpace=wrap;html=1;" vertex="1" parent="1">
          <mxGeometry x="750" y="7480" width="280" height="170" as="geometry" />
        </mxCell>
        <mxCell id="zDuV5ie3d85IJ7Vr7PQk-73" value="&lt;font style=&quot;font-size: 25px;&quot;&gt;&amp;lt;&amp;lt;extend&amp;gt;&amp;gt;&lt;/font&gt;" style="endArrow=open;endSize=12;dashed=1;html=1;rounded=0;entryX=1;entryY=0.5;entryDx=0;entryDy=0;exitX=0;exitY=0.424;exitDx=0;exitDy=0;exitPerimeter=0;" edge="1" parent="1" source="zDuV5ie3d85IJ7Vr7PQk-74" target="zDuV5ie3d85IJ7Vr7PQk-57">
          <mxGeometry x="-0.1196" y="18" width="160" relative="1" as="geometry">
            <mxPoint x="780" y="7870" as="sourcePoint" />
            <mxPoint x="543" y="8026.23" as="targetPoint" />
            <mxPoint as="offset" />
          </mxGeometry>
        </mxCell>
        <mxCell id="zDuV5ie3d85IJ7Vr7PQk-74" value="&lt;span style=&quot;font-size: 32px;&quot;&gt;회원정보 수정&lt;/span&gt;" style="ellipse;whiteSpace=wrap;html=1;" vertex="1" parent="1">
          <mxGeometry x="770" y="7770" width="280" height="170" as="geometry" />
        </mxCell>
        <mxCell id="zDuV5ie3d85IJ7Vr7PQk-75" value="&lt;font style=&quot;font-size: 25px;&quot;&gt;&amp;lt;&amp;lt;extend&amp;gt;&amp;gt;&lt;/font&gt;" style="endArrow=open;endSize=12;dashed=1;html=1;rounded=0;exitX=0.025;exitY=0.353;exitDx=0;exitDy=0;exitPerimeter=0;entryX=0.907;entryY=0.847;entryDx=0;entryDy=0;entryPerimeter=0;" edge="1" parent="1" source="zDuV5ie3d85IJ7Vr7PQk-76" target="zDuV5ie3d85IJ7Vr7PQk-57">
          <mxGeometry x="-0.1196" y="18" width="160" relative="1" as="geometry">
            <mxPoint x="727.9200000000001" y="8160" as="sourcePoint" />
            <mxPoint x="510" y="8326.23" as="targetPoint" />
            <mxPoint as="offset" />
          </mxGeometry>
        </mxCell>
        <mxCell id="zDuV5ie3d85IJ7Vr7PQk-76" value="&lt;span style=&quot;font-size: 32px;&quot;&gt;회원 정보 삭제&lt;/span&gt;" style="ellipse;whiteSpace=wrap;html=1;" vertex="1" parent="1">
          <mxGeometry x="728.96" y="8030" width="280" height="170" as="geometry" />
        </mxCell>
        <mxCell id="zDuV5ie3d85IJ7Vr7PQk-77" value="" style="endArrow=classic;html=1;rounded=0;entryX=0.007;entryY=0.694;entryDx=0;entryDy=0;entryPerimeter=0;" edge="1" parent="1">
          <mxGeometry width="50" height="50" relative="1" as="geometry">
            <mxPoint x="18" y="8400" as="sourcePoint" />
            <mxPoint x="230" y="8402" as="targetPoint" />
          </mxGeometry>
        </mxCell>
        <mxCell id="zDuV5ie3d85IJ7Vr7PQk-78" value="&lt;span style=&quot;font-size: 32px;&quot;&gt;마이페이지&lt;/span&gt;" style="ellipse;whiteSpace=wrap;html=1;" vertex="1" parent="1">
          <mxGeometry x="230" y="8320" width="280" height="170" as="geometry" />
        </mxCell>
        <mxCell id="zDuV5ie3d85IJ7Vr7PQk-79" value="&lt;font style=&quot;font-size: 25px;&quot;&gt;&amp;lt;&amp;lt;extend&amp;gt;&amp;gt;&lt;/font&gt;" style="endArrow=open;endSize=12;dashed=1;html=1;rounded=0;entryX=1;entryY=0.5;entryDx=0;entryDy=0;exitX=0;exitY=0.424;exitDx=0;exitDy=0;exitPerimeter=0;" edge="1" parent="1" source="zDuV5ie3d85IJ7Vr7PQk-80">
          <mxGeometry x="-0.1196" y="18" width="160" relative="1" as="geometry">
            <mxPoint x="780" y="8430" as="sourcePoint" />
            <mxPoint x="510" y="8405" as="targetPoint" />
            <mxPoint as="offset" />
          </mxGeometry>
        </mxCell>
        <mxCell id="zDuV5ie3d85IJ7Vr7PQk-80" value="&lt;span style=&quot;font-size: 32px;&quot;&gt;모든 회원 조회&lt;/span&gt;" style="ellipse;whiteSpace=wrap;html=1;" vertex="1" parent="1">
          <mxGeometry x="770" y="8330" width="280" height="170" as="geometry" />
        </mxCell>
        <mxCell id="zDuV5ie3d85IJ7Vr7PQk-81" value="&lt;font style=&quot;font-size: 25px;&quot;&gt;&amp;lt;&amp;lt;extend&amp;gt;&amp;gt;&lt;/font&gt;" style="endArrow=open;endSize=12;dashed=1;html=1;rounded=0;entryX=0.914;entryY=0.859;entryDx=0;entryDy=0;exitX=0;exitY=0.424;exitDx=0;exitDy=0;exitPerimeter=0;entryPerimeter=0;" edge="1" parent="1" source="zDuV5ie3d85IJ7Vr7PQk-82" target="zDuV5ie3d85IJ7Vr7PQk-78">
          <mxGeometry x="-0.1196" y="18" width="160" relative="1" as="geometry">
            <mxPoint x="786" y="8670" as="sourcePoint" />
            <mxPoint x="516" y="8645" as="targetPoint" />
            <mxPoint as="offset" />
          </mxGeometry>
        </mxCell>
        <mxCell id="zDuV5ie3d85IJ7Vr7PQk-82" value="&lt;span style=&quot;font-size: 32px;&quot;&gt;회원정보 수정&lt;/span&gt;" style="ellipse;whiteSpace=wrap;html=1;" vertex="1" parent="1">
          <mxGeometry x="776" y="8570" width="280" height="170" as="geometry" />
        </mxCell>
        <mxCell id="zDuV5ie3d85IJ7Vr7PQk-83" value="&lt;font style=&quot;font-size: 25px;&quot;&gt;&amp;lt;&amp;lt;extend&amp;gt;&amp;gt;&lt;/font&gt;" style="endArrow=open;endSize=12;dashed=1;html=1;rounded=0;exitX=0.436;exitY=0.012;exitDx=0;exitDy=0;exitPerimeter=0;entryX=0.5;entryY=1;entryDx=0;entryDy=0;" edge="1" parent="1" source="zDuV5ie3d85IJ7Vr7PQk-84" target="zDuV5ie3d85IJ7Vr7PQk-78">
          <mxGeometry x="-0.1196" y="18" width="160" relative="1" as="geometry">
            <mxPoint x="733.9200000000001" y="8960" as="sourcePoint" />
            <mxPoint x="500" y="8704" as="targetPoint" />
            <mxPoint as="offset" />
          </mxGeometry>
        </mxCell>
        <mxCell id="zDuV5ie3d85IJ7Vr7PQk-84" value="&lt;span style=&quot;font-size: 32px;&quot;&gt;회원 정보 삭제&lt;/span&gt;" style="ellipse;whiteSpace=wrap;html=1;" vertex="1" parent="1">
          <mxGeometry x="250.00000000000006" y="8690" width="280" height="170" as="geometry" />
        </mxCell>
        <mxCell id="zDuV5ie3d85IJ7Vr7PQk-85" value="&lt;font style=&quot;font-size: 25px;&quot;&gt;&amp;lt;&amp;lt;extend&amp;gt;&amp;gt;&lt;/font&gt;" style="endArrow=open;endSize=12;dashed=1;html=1;rounded=0;exitX=0.436;exitY=0.012;exitDx=0;exitDy=0;exitPerimeter=0;entryX=0.793;entryY=0.965;entryDx=0;entryDy=0;entryPerimeter=0;" edge="1" parent="1" source="zDuV5ie3d85IJ7Vr7PQk-86" target="zDuV5ie3d85IJ7Vr7PQk-78">
          <mxGeometry x="-0.1196" y="18" width="160" relative="1" as="geometry">
            <mxPoint x="1026.92" y="9170" as="sourcePoint" />
            <mxPoint x="663" y="8700" as="targetPoint" />
            <mxPoint as="offset" />
          </mxGeometry>
        </mxCell>
        <mxCell id="zDuV5ie3d85IJ7Vr7PQk-86" value="&lt;span style=&quot;font-size: 32px;&quot;&gt;상품관리&lt;/span&gt;" style="ellipse;whiteSpace=wrap;html=1;" vertex="1" parent="1">
          <mxGeometry x="530" y="8850" width="280" height="170" as="geometry" />
        </mxCell>
        <mxCell id="zDuV5ie3d85IJ7Vr7PQk-87" value="&lt;font style=&quot;font-size: 25px;&quot;&gt;&amp;lt;&amp;lt;extend&amp;gt;&amp;gt;&lt;/font&gt;" style="endArrow=open;endSize=12;dashed=1;html=1;rounded=0;exitX=0.436;exitY=0.012;exitDx=0;exitDy=0;exitPerimeter=0;" edge="1" parent="1" source="zDuV5ie3d85IJ7Vr7PQk-88" target="zDuV5ie3d85IJ7Vr7PQk-78">
          <mxGeometry x="-0.1196" y="18" width="160" relative="1" as="geometry">
            <mxPoint x="453.9200000000001" y="9140" as="sourcePoint" />
            <mxPoint x="90" y="8670" as="targetPoint" />
            <mxPoint as="offset" />
          </mxGeometry>
        </mxCell>
        <mxCell id="zDuV5ie3d85IJ7Vr7PQk-88" value="&lt;span style=&quot;font-size: 32px;&quot;&gt;방문자수 통계 조회&lt;/span&gt;" style="ellipse;whiteSpace=wrap;html=1;" vertex="1" parent="1">
          <mxGeometry x="50" y="8870" width="280" height="170" as="geometry" />
        </mxCell>
        <mxCell id="zDuV5ie3d85IJ7Vr7PQk-90" value="&lt;font style=&quot;font-size: 25px;&quot;&gt;&amp;lt;&amp;lt;extend&amp;gt;&amp;gt;&lt;/font&gt;" style="endArrow=open;endSize=12;dashed=1;html=1;rounded=0;exitX=0.436;exitY=0.012;exitDx=0;exitDy=0;exitPerimeter=0;" edge="1" parent="1" source="zDuV5ie3d85IJ7Vr7PQk-91" target="zDuV5ie3d85IJ7Vr7PQk-78">
          <mxGeometry x="-0.1196" y="18" width="160" relative="1" as="geometry">
            <mxPoint x="83.92000000000007" y="9060" as="sourcePoint" />
            <mxPoint x="-280" y="8590" as="targetPoint" />
            <mxPoint as="offset" />
          </mxGeometry>
        </mxCell>
        <mxCell id="zDuV5ie3d85IJ7Vr7PQk-91" value="&lt;span style=&quot;font-size: 32px;&quot;&gt;상품별 판매조회&lt;/span&gt;" style="ellipse;whiteSpace=wrap;html=1;" vertex="1" parent="1">
          <mxGeometry x="-270" y="8790" width="280" height="170" as="geometry" />
        </mxCell>
        <mxCell id="zDuV5ie3d85IJ7Vr7PQk-93" value="&lt;font style=&quot;font-size: 25px;&quot;&gt;&amp;lt;&amp;lt;extend&amp;gt;&amp;gt;&lt;/font&gt;" style="endArrow=open;endSize=12;dashed=1;html=1;rounded=0;entryX=0.921;entryY=0.195;entryDx=0;entryDy=0;entryPerimeter=0;" edge="1" parent="1" source="zDuV5ie3d85IJ7Vr7PQk-113" target="zDuV5ie3d85IJ7Vr7PQk-94">
          <mxGeometry x="-0.116" y="18" width="160" relative="1" as="geometry">
            <mxPoint x="-269.44000000000005" y="8168.810000000001" as="sourcePoint" />
            <mxPoint x="-170.00348661086312" y="8039.998193857937" as="targetPoint" />
            <mxPoint as="offset" />
          </mxGeometry>
        </mxCell>
        <mxCell id="zDuV5ie3d85IJ7Vr7PQk-94" value="&lt;span style=&quot;font-size: 32px;&quot;&gt;상품목록 조회&lt;/span&gt;" style="ellipse;whiteSpace=wrap;html=1;" vertex="1" parent="1">
          <mxGeometry x="-630" y="8286.77" width="280" height="170" as="geometry" />
        </mxCell>
        <mxCell id="zDuV5ie3d85IJ7Vr7PQk-97" value="&lt;font style=&quot;font-size: 25px;&quot;&gt;&amp;lt;&amp;lt;extend&amp;gt;&amp;gt;&lt;/font&gt;" style="endArrow=open;endSize=12;dashed=1;html=1;rounded=0;" edge="1" parent="1" source="zDuV5ie3d85IJ7Vr7PQk-65">
          <mxGeometry x="0.225" y="26" width="160" relative="1" as="geometry">
            <mxPoint x="-102" y="8006" as="sourcePoint" />
            <mxPoint x="-330" y="8390" as="targetPoint" />
            <mxPoint x="-1" as="offset" />
          </mxGeometry>
        </mxCell>
        <mxCell id="zDuV5ie3d85IJ7Vr7PQk-98" value="&lt;font style=&quot;font-size: 25px;&quot;&gt;&amp;lt;&amp;lt;extend&amp;gt;&amp;gt;&lt;/font&gt;" style="endArrow=open;endSize=12;dashed=1;html=1;rounded=0;entryX=0;entryY=0.5;entryDx=0;entryDy=0;" edge="1" parent="1" target="zDuV5ie3d85IJ7Vr7PQk-94">
          <mxGeometry x="0.2214" y="26" width="160" relative="1" as="geometry">
            <mxPoint x="-910" y="8372" as="sourcePoint" />
            <mxPoint x="-1130" y="8286.77" as="targetPoint" />
            <mxPoint x="1" as="offset" />
          </mxGeometry>
        </mxCell>
        <mxCell id="zDuV5ie3d85IJ7Vr7PQk-99" value="&lt;span style=&quot;font-size: 32px;&quot;&gt;상품 검색&lt;/span&gt;" style="ellipse;whiteSpace=wrap;html=1;" vertex="1" parent="1">
          <mxGeometry x="-1190" y="8286.77" width="280" height="170" as="geometry" />
        </mxCell>
        <mxCell id="zDuV5ie3d85IJ7Vr7PQk-100" value="&lt;font style=&quot;font-size: 25px;&quot;&gt;&amp;lt;&amp;lt;extend&amp;gt;&amp;gt;&lt;/font&gt;" style="endArrow=open;endSize=12;dashed=1;html=1;rounded=0;entryX=0;entryY=0.5;entryDx=0;entryDy=0;" edge="1" parent="1">
          <mxGeometry x="0.2214" y="26" width="160" relative="1" as="geometry">
            <mxPoint x="-1470" y="8372" as="sourcePoint" />
            <mxPoint x="-1190" y="8372" as="targetPoint" />
            <mxPoint x="1" as="offset" />
          </mxGeometry>
        </mxCell>
        <mxCell id="zDuV5ie3d85IJ7Vr7PQk-101" value="&lt;span style=&quot;font-size: 32px;&quot;&gt;상품 상세 조회&lt;/span&gt;" style="ellipse;whiteSpace=wrap;html=1;" vertex="1" parent="1">
          <mxGeometry x="-1750" y="8286.77" width="280" height="170" as="geometry" />
        </mxCell>
        <mxCell id="zDuV5ie3d85IJ7Vr7PQk-102" value="&lt;font style=&quot;font-size: 25px;&quot;&gt;&amp;lt;&amp;lt;extend&amp;gt;&amp;gt;&lt;/font&gt;" style="endArrow=open;endSize=12;dashed=1;html=1;rounded=0;entryX=0;entryY=0.5;entryDx=0;entryDy=0;" edge="1" parent="1">
          <mxGeometry x="0.2214" y="26" width="160" relative="1" as="geometry">
            <mxPoint x="-2030" y="8372" as="sourcePoint" />
            <mxPoint x="-1750" y="8372" as="targetPoint" />
            <mxPoint x="1" as="offset" />
          </mxGeometry>
        </mxCell>
        <mxCell id="zDuV5ie3d85IJ7Vr7PQk-103" value="&lt;span style=&quot;font-size: 32px;&quot;&gt;결제&lt;/span&gt;" style="ellipse;whiteSpace=wrap;html=1;" vertex="1" parent="1">
          <mxGeometry x="-2310" y="8286.77" width="280" height="170" as="geometry" />
        </mxCell>
        <mxCell id="zDuV5ie3d85IJ7Vr7PQk-105" value="&lt;span style=&quot;font-size: 25px;&quot;&gt;SMS시스템&lt;/span&gt;" style="shape=umlActor;verticalLabelPosition=bottom;verticalAlign=top;html=1;" vertex="1" parent="1">
          <mxGeometry x="-2610" y="8236.77" width="140" height="270" as="geometry" />
        </mxCell>
        <mxCell id="zDuV5ie3d85IJ7Vr7PQk-106" value="" style="endArrow=classic;html=1;rounded=0;exitX=0;exitY=0.5;exitDx=0;exitDy=0;" edge="1" parent="1" source="zDuV5ie3d85IJ7Vr7PQk-103" target="zDuV5ie3d85IJ7Vr7PQk-105">
          <mxGeometry width="50" height="50" relative="1" as="geometry">
            <mxPoint x="-2370" y="8200" as="sourcePoint" />
            <mxPoint x="-2323" y="8370.77" as="targetPoint" />
          </mxGeometry>
        </mxCell>
        <mxCell id="zDuV5ie3d85IJ7Vr7PQk-107" value="&lt;span style=&quot;font-size: 32px;&quot;&gt;리뷰&lt;/span&gt;" style="ellipse;whiteSpace=wrap;html=1;" vertex="1" parent="1">
          <mxGeometry x="190" y="7410" width="280" height="170" as="geometry" />
        </mxCell>
        <mxCell id="zDuV5ie3d85IJ7Vr7PQk-108" value="" style="endArrow=classic;html=1;rounded=0;" edge="1" parent="1" source="zDuV5ie3d85IJ7Vr7PQk-64">
          <mxGeometry width="50" height="50" relative="1" as="geometry">
            <mxPoint x="-20" y="7526" as="sourcePoint" />
            <mxPoint x="180" y="7560" as="targetPoint" />
          </mxGeometry>
        </mxCell>
        <mxCell id="zDuV5ie3d85IJ7Vr7PQk-109" value="&lt;font style=&quot;font-size: 25px;&quot;&gt;&amp;lt;&amp;lt;extend&amp;gt;&amp;gt;&lt;/font&gt;" style="endArrow=open;endSize=12;dashed=1;html=1;rounded=0;entryX=0.97;entryY=0.743;entryDx=0;entryDy=0;entryPerimeter=0;" edge="1" parent="1" source="zDuV5ie3d85IJ7Vr7PQk-110" target="zDuV5ie3d85IJ7Vr7PQk-112">
          <mxGeometry x="-0.1196" y="18" width="160" relative="1" as="geometry">
            <mxPoint x="723.96" y="7260" as="sourcePoint" />
            <mxPoint x="450" y="7439" as="targetPoint" />
            <mxPoint as="offset" />
          </mxGeometry>
        </mxCell>
        <mxCell id="zDuV5ie3d85IJ7Vr7PQk-110" value="&lt;span style=&quot;font-size: 32px;&quot;&gt;리뷰 검색&lt;/span&gt;" style="ellipse;whiteSpace=wrap;html=1;" vertex="1" parent="1">
          <mxGeometry x="740" y="7070" width="280" height="170" as="geometry" />
        </mxCell>
        <mxCell id="zDuV5ie3d85IJ7Vr7PQk-111" value="&lt;font style=&quot;font-size: 25px;&quot;&gt;&amp;lt;&amp;lt;extend&amp;gt;&amp;gt;&lt;/font&gt;" style="endArrow=open;endSize=12;dashed=1;html=1;rounded=0;entryX=0.5;entryY=0;entryDx=0;entryDy=0;" edge="1" parent="1" source="zDuV5ie3d85IJ7Vr7PQk-112" target="zDuV5ie3d85IJ7Vr7PQk-107">
          <mxGeometry x="-0.1196" y="18" width="160" relative="1" as="geometry">
            <mxPoint x="208.96000000000004" y="7150" as="sourcePoint" />
            <mxPoint x="-65" y="7329" as="targetPoint" />
            <mxPoint as="offset" />
          </mxGeometry>
        </mxCell>
        <mxCell id="zDuV5ie3d85IJ7Vr7PQk-112" value="&lt;span style=&quot;font-size: 32px;&quot;&gt;리뷰 조회&lt;/span&gt;" style="ellipse;whiteSpace=wrap;html=1;" vertex="1" parent="1">
          <mxGeometry x="210" y="7020" width="280" height="170" as="geometry" />
        </mxCell>
        <mxCell id="zDuV5ie3d85IJ7Vr7PQk-113" value="&lt;span style=&quot;font-size: 32px;&quot;&gt;상품구매&lt;/span&gt;" style="ellipse;whiteSpace=wrap;html=1;" vertex="1" parent="1">
          <mxGeometry x="50" y="8066.77" width="280" height="170" as="geometry" />
        </mxCell>
        <mxCell id="zDuV5ie3d85IJ7Vr7PQk-114" value="" style="endArrow=classic;html=1;rounded=0;entryX=0;entryY=0;entryDx=0;entryDy=0;" edge="1" parent="1" source="zDuV5ie3d85IJ7Vr7PQk-64" target="zDuV5ie3d85IJ7Vr7PQk-113">
          <mxGeometry width="50" height="50" relative="1" as="geometry">
            <mxPoint x="-130" y="7710" as="sourcePoint" />
            <mxPoint x="170" y="8220" as="targetPoint" />
          </mxGeometry>
        </mxCell>
        <mxCell id="zDuV5ie3d85IJ7Vr7PQk-115" value="&lt;font style=&quot;font-size: 25px;&quot;&gt;&amp;lt;&amp;lt;include&amp;gt;&amp;gt;&lt;/font&gt;" style="endArrow=open;endSize=12;dashed=1;html=1;rounded=0;exitX=0.047;exitY=0.286;exitDx=0;exitDy=0;exitPerimeter=0;entryX=0.5;entryY=0;entryDx=0;entryDy=0;" edge="1" parent="1" source="zDuV5ie3d85IJ7Vr7PQk-107" target="zDuV5ie3d85IJ7Vr7PQk-113">
          <mxGeometry x="-0.1154" y="18" width="160" relative="1" as="geometry">
            <mxPoint x="64" y="6810" as="sourcePoint" />
            <mxPoint x="319" y="8184" as="targetPoint" />
            <mxPoint as="offset" />
          </mxGeometry>
        </mxCell>
        <mxCell id="zDuV5ie3d85IJ7Vr7PQk-116" value="&lt;font style=&quot;font-size: 25px;&quot;&gt;&amp;lt;&amp;lt;include&amp;gt;&amp;gt;&lt;/font&gt;" style="endArrow=open;endSize=12;dashed=1;html=1;rounded=0;exitX=0.976;exitY=0.351;exitDx=0;exitDy=0;exitPerimeter=0;" edge="1" parent="1" source="zDuV5ie3d85IJ7Vr7PQk-107" target="zDuV5ie3d85IJ7Vr7PQk-117">
          <mxGeometry x="-0.0909" y="20" width="160" relative="1" as="geometry">
            <mxPoint x="510" y="7330" as="sourcePoint" />
            <mxPoint x="598.3299999999999" y="7290" as="targetPoint" />
            <mxPoint as="offset" />
          </mxGeometry>
        </mxCell>
        <mxCell id="zDuV5ie3d85IJ7Vr7PQk-117" value="&lt;span style=&quot;font-size: 32px;&quot;&gt;사진등록&lt;/span&gt;" style="ellipse;whiteSpace=wrap;html=1;" vertex="1" parent="1">
          <mxGeometry x="640" y="7260" width="280" height="170" as="geometry" />
        </mxCell>
      </root>
    </mxGraphModel>
  </diagram>
</mxfile>
